/* XPM */
static char * depthA_xpm[] = {
"30 68 39 1",
" 	c #525252",
".	c #515151",
"+	c #494949",
"@	c #3A3A3A",
"#	c #373737",
"$	c #545454",
"%	c #5D5D5D",
"&	c #565656",
"*	c #505050",
"=	c #363636",
"-	c #535353",
";	c #353535",
">	c #4F4F4F",
",	c #343434",
"'	c #919191",
")	c #D2D2D2",
"!	c #F3F3F3",
"~	c #4E4E4E",
"{	c #333333",
"]	c #4D4D4D",
"^	c #323232",
"/	c #595959",
"(	c #4C4C4C",
"_	c #313131",
":	c #4B4B4B",
"<	c #303030",
"[	c #4A4A4A",
"}	c #2F2F2F",
"|	c #424242",
"1	c #484848",
"2	c #3F3F3F",
"3	c #2E2E2E",
"4	c #454545",
"5	c #444444",
"6	c #2C2C2C",
"7	c #474747",
"8	c #404040",
"9	c #434343",
"0	c #5B5B5B",
"                              ",
"                              ",
"                              ",
"..............................",
"...+@####################@+...",
"...@$%%%%%%%%%%%%%%%%%%%%$@...",
"...#&$$$$$$$$$$$$$$$$$$$$&#...",
"***=----------------------=***",
"***=----------------------=***",
"***;                      ;***",
">>>;                      ;>>>",
">>>;......................;>>>",
">>>,*******')****)'*******,>>>",
">>>,*******)!)**)!)*******,>>>",
"~~~{>>>>>>>>)!))!)>>>>>>>>{~~~",
"~~~{>>>>>>>>>)!!)>>>>>>>>>{~~~",
"~~~{>>>>>>>>>>))>>>>>>>>>>{~~~",
"~~~{>>>>>>>!!!!!!!!>>>>>>>{~~~",
"]]]{~~~~~~~!!!!!!!!~~~~~~~{]]]",
"]]]^]]]]]]]////////]]]]]]]^]]]",
"]]]^]]]]]]]]]]]]]]]]]]]]]]^]]]",
"(((^]]]]]]]]]]]]]]]]]]]]]]^(((",
"(((_::::::::::::::::::::::_(((",
"(((_::::::::::::::::::::::_(((",
"(((<[[[[[[[[[[[[[[[[[[[[[[<(((",
":::}++++++++++++++++++++++}:::",
":::_|11111111111111111111|_:::",
":::2_33333333333333333333_2:::",
":::+4555555555555555555554+:::",
"[[[[[[[[[[[[[[[[[[[[[[[[[[[[[[",
"[[[[[[[[[[[[[[[[[[[[[[[[[[[[[[",
"[[[[[[[[[[[[[[[[[[[[[[[[[[[[[[",
"++++++++++++++++++++++++++++++",
"666666666666666666666666666666",
"                              ",
"                              ",
"                              ",
"..............................",
"...7,____________________,7...",
"...,8555555555555555555558,...",
"..._7777777777777777777777_...",
"***<1++++++++++++++++++++1<***",
"***<[[[[[[[[[[[[[[[[[[[[[[<***",
"***_::::::::::::::::::::::_***",
">>>_::::::::::::::::::::::_>>>",
">>><[[[[[[[[[[[[[[[[[[[[[[<>>>",
">>><[[[[[[[')[[[[)'[[[[[[[<>>>",
">>>_:::::::)!)[[)!):::::::_>>>",
"~~~<[[[[[[[[)!))!)[[[[[[[[<~~~",
"~~~<[[[[[[[[[)!!)[[[[[[[[[<~~~",
"~~~<[[[[[[[[[[))[[[[[[[[[[<~~~",
"~~~<[[[[[[[!!!!!!!![[[[[[[<~~~",
"]]]<[[[[[[[!!!!!!!![[[[[[[<]]]",
"]]]<[[[[[[[[[[[[[[[[[[[[[[<]]]",
"]]]<[[[[[[[[[[[[[[[[[[[[[[<]]]",
"(((<[[[[[[[[[[[[[[[[[[[[[[<(((",
"(((<++++++++++++++++++++++<(((",
"(((<[[[[[[[[[[[[[[[[[[[[[[<(((",
"(((<[[[[[[[[[[[[[[[[[[[[[[<(((",
":::}++++++++++++++++++++++}:::",
":::;9++++++++++++++++++++9;:::",
":::~;<<<<<<<<<<<<<<<<<<<<;>:::",
":::*0%%%%%%%%%%%%%%%%%%%%0*:::",
"[[[[[[[[[[[[[[[[[[[[[[[[[[[[[[",
"[[[[[[[[[[[[[[[[[[[[[[[[[[[[[[",
"[[[[[[[[[[[[[[[[[[[[[[[[[[[[[[",
"++++++++++++++++++++++++++++++",
"666666666666666666666666666666"};
