/* XPM */
static char * rollupA_xpm[] = {
"30 68 37 1",
" 	c #525252",
".	c #515151",
"+	c #494949",
"@	c #3A3A3A",
"#	c #373737",
"$	c #545454",
"%	c #5D5D5D",
"&	c #565656",
"*	c #505050",
"=	c #363636",
"-	c #535353",
";	c #353535",
">	c #4F4F4F",
",	c #F3F3F3",
"'	c #343434",
")	c #595959",
"!	c #4E4E4E",
"~	c #333333",
"{	c #4D4D4D",
"]	c #323232",
"^	c #4C4C4C",
"/	c #313131",
"(	c #4B4B4B",
"_	c #303030",
":	c #4A4A4A",
"<	c #2F2F2F",
"[	c #424242",
"}	c #484848",
"|	c #3F3F3F",
"1	c #2E2E2E",
"2	c #454545",
"3	c #444444",
"4	c #2C2C2C",
"5	c #474747",
"6	c #404040",
"7	c #434343",
"8	c #5B5B5B",
"                              ",
"                              ",
"                              ",
"..............................",
"...+@####################@+...",
"...@$%%%%%%%%%%%%%%%%%%%%$@...",
"...#&$$$$$$$$$$$$$$$$$$$$&#...",
"***=----------------------=***",
"***=----------------------=***",
"***;                      ;***",
">>>;                      ;>>>",
">>>;.......,,,,,,,,.......;>>>",
">>>'*******,,,,,,,,*******'>>>",
">>>'*******))))))))*******'>>>",
"!!!~>>>>>>>>>>>>>>>>>>>>>>~!!!",
"!!!~>>>>>>>>>>>>>>>>>>>>>>~!!!",
"!!!~>>>>>>>>>>>>>>>>>>>>>>~!!!",
"!!!~>>>>>>>>>>>>>>>>>>>>>>~!!!",
"{{{~!!!!!!!!!!!!!!!!!!!!!!~{{{",
"{{{]{{{{{{{{{{{{{{{{{{{{{{]{{{",
"{{{]{{{{{{{{{{{{{{{{{{{{{{]{{{",
"^^^]{{{{{{{{{{{{{{{{{{{{{{]^^^",
"^^^/((((((((((((((((((((((/^^^",
"^^^/((((((((((((((((((((((/^^^",
"^^^_::::::::::::::::::::::_^^^",
"(((<++++++++++++++++++++++<(((",
"(((/[}}}}}}}}}}}}}}}}}}}}[/(((",
"(((|/11111111111111111111/|(((",
"(((+2333333333333333333332+(((",
"::::::::::::::::::::::::::::::",
"::::::::::::::::::::::::::::::",
"::::::::::::::::::::::::::::::",
"++++++++++++++++++++++++++++++",
"444444444444444444444444444444",
"                              ",
"                              ",
"                              ",
"..............................",
"...5'////////////////////'5...",
"...'6333333333333333333336'...",
".../5555555555555555555555/...",
"***_}++++++++++++++++++++}_***",
"***_::::::::::::::::::::::_***",
"***/((((((((((((((((((((((/***",
">>>/((((((((((((((((((((((/>>>",
">>>_:::::::,,,,,,,,:::::::_>>>",
">>>_:::::::,,,,,,,,:::::::_>>>",
">>>/((((((())))))))(((((((/>>>",
"!!!_::::::::::::::::::::::_!!!",
"!!!_::::::::::::::::::::::_!!!",
"!!!_::::::::::::::::::::::_!!!",
"!!!_::::::::::::::::::::::_!!!",
"{{{_::::::::::::::::::::::_{{{",
"{{{_::::::::::::::::::::::_{{{",
"{{{_::::::::::::::::::::::_{{{",
"^^^_::::::::::::::::::::::_^^^",
"^^^_++++++++++++++++++++++_^^^",
"^^^_::::::::::::::::::::::_^^^",
"^^^_::::::::::::::::::::::_^^^",
"(((<++++++++++++++++++++++<(((",
"(((;7++++++++++++++++++++7;(((",
"(((!;____________________;>(((",
"(((*8%%%%%%%%%%%%%%%%%%%%8*(((",
"::::::::::::::::::::::::::::::",
"::::::::::::::::::::::::::::::",
"::::::::::::::::::::::::::::::",
"++++++++++++++++++++++++++++++",
"444444444444444444444444444444"};
