/* XPM */
static char * rollupI_xpm[] = {
"30 68 31 1",
" 	c #555555",
".	c #4C4C4C",
"+	c #3A3A3A",
"@	c #373737",
"#	c #3B3B3B",
"$	c #4F4F4F",
"%	c #4E4E4E",
"&	c #ACACAC",
"*	c #4D4D4D",
"=	c #545454",
"-	c #535353",
";	c #474747",
">	c #343434",
",	c #313131",
"'	c #404040",
")	c #444444",
"!	c #303030",
"~	c #484848",
"{	c #494949",
"]	c #525252",
"^	c #4A4A4A",
"/	c #4B4B4B",
"(	c #F3F3F3",
"_	c #595959",
":	c #515151",
"<	c #505050",
"[	c #2F2F2F",
"}	c #353535",
"|	c #434343",
"1	c #5B5B5B",
"2	c #5D5D5D",
"                              ",
"                              ",
"                              ",
"                              ",
"   .+@@@@@@@@@@@@@@@@@@@@#.   ",
"   #$                    %#   ",
"   @                      @   ",
"   @                      @   ",
"   @                      @   ",
"   @                      @   ",
"   @                      @   ",
"   @       &&&&&&&&       @   ",
"   @       &&&&&&&&       @   ",
"   @                      @   ",
"   @                      @   ",
"   @                      @   ",
"   @                      @   ",
"   @                      @   ",
"   @                      @   ",
"   @                      @   ",
"   @                      @   ",
"   @                      @   ",
"   @                      @   ",
"   @                      @   ",
"   @                      @   ",
"   @                      @   ",
"   #%                    %#   ",
"   .#@@@@@@@@@@@@@@@@@@@@#*   ",
"                              ",
"                              ",
"                              ",
"                              ",
"                              ",
"++++++++++++++++++++++++++++++",
"==============================",
"------------------------------",
"------------------------------",
"------------------------------",
"---;>,,,,,,,,,,,,,,,,,,,,>;---",
"--->'))))))))))))))))))))'>---",
"---,;;;;;;;;;;;;;;;;;;;;;;,---",
"---!~{{{{{{{{{{{{{{{{{{{{~!---",
"]]]!^^^^^^^^^^^^^^^^^^^^^^!]]]",
"]]],//////////////////////,]]]",
"]]],//////////////////////,]]]",
"]]]!^^^^^^^((((((((^^^^^^^!]]]",
"]]]!^^^^^^^((((((((^^^^^^^!]]]",
"]]],///////________///////,]]]",
"]]]!^^^^^^^^^^^^^^^^^^^^^^!]]]",
"]]]!^^^^^^^^^^^^^^^^^^^^^^!]]]",
":::!^^^^^^^^^^^^^^^^^^^^^^!:::",
":::!^^^^^^^^^^^^^^^^^^^^^^!:::",
":::!^^^^^^^^^^^^^^^^^^^^^^!:::",
":::!^^^^^^^^^^^^^^^^^^^^^^!:::",
":::!^^^^^^^^^^^^^^^^^^^^^^!:::",
":::!^^^^^^^^^^^^^^^^^^^^^^!:::",
"<<<!{{{{{{{{{{{{{{{{{{{{{{!<<<",
"<<<!^^^^^^^^^^^^^^^^^^^^^^!<<<",
"<<<!^^^^^^^^^^^^^^^^^^^^^^!<<<",
"<<<[{{{{{{{{{{{{{{{{{{{{{{[<<<",
"<<<}|{{{{{{{{{{{{{{{{{{{{|}<<<",
"<<<%}!!!!!!!!!!!!!!!!!!!!}$<<<",
"<<<<1222222222222222222221<<<<",
"<<<<<<<<<<<<<<<<<<<<<<<<<<<<<<",
"$$$$$$$$$$$$$$$$$$$$$$$$$$$$$$",
"$$$$$$$$$$$$$$$$$$$$$$$$$$$$$$",
"$$$$$$$$$$$$$$$$$$$$$$$$$$$$$$",
"++++++++++++++++++++++++++++++"};
