/* XPM */
static char * depthI_xpm[] = {
"30 68 35 1",
" 	c #555555",
".	c #4C4C4C",
"+	c #3A3A3A",
"@	c #373737",
"#	c #3B3B3B",
"$	c #4F4F4F",
"%	c #4E4E4E",
"&	c #777777",
"*	c #9A9A9A",
"=	c #ACACAC",
"-	c #595959",
";	c #4D4D4D",
">	c #545454",
",	c #535353",
"'	c #474747",
")	c #343434",
"!	c #313131",
"~	c #404040",
"{	c #444444",
"]	c #303030",
"^	c #484848",
"/	c #494949",
"(	c #525252",
"_	c #4A4A4A",
":	c #4B4B4B",
"<	c #919191",
"[	c #D2D2D2",
"}	c #F3F3F3",
"|	c #515151",
"1	c #505050",
"2	c #2F2F2F",
"3	c #353535",
"4	c #434343",
"5	c #5B5B5B",
"6	c #5D5D5D",
"                              ",
"                              ",
"                              ",
"                              ",
"   .+@@@@@@@@@@@@@@@@@@@@#.   ",
"   #$                    %#   ",
"   @                      @   ",
"   @                      @   ",
"   @                      @   ",
"   @                      @   ",
"   @                      @   ",
"   @                      @   ",
"   @       &*    *&       @   ",
"   @       *=*  *=*       @   ",
"   @        *=**=*        @   ",
"   @         *==*         @   ",
"   @          ==          @   ",
"   @       ========       @   ",
"   @       ========       @   ",
"   @       --------       @   ",
"   @                      @   ",
"   @                      @   ",
"   @                      @   ",
"   @                      @   ",
"   @                      @   ",
"   @                      @   ",
"   #%                    %#   ",
"   .#@@@@@@@@@@@@@@@@@@@@#;   ",
"                              ",
"                              ",
"                              ",
"                              ",
"                              ",
"++++++++++++++++++++++++++++++",
">>>>>>>>>>>>>>>>>>>>>>>>>>>>>>",
",,,,,,,,,,,,,,,,,,,,,,,,,,,,,,",
",,,,,,,,,,,,,,,,,,,,,,,,,,,,,,",
",,,,,,,,,,,,,,,,,,,,,,,,,,,,,,",
",,,')!!!!!!!!!!!!!!!!!!!!)',,,",
",,,)~{{{{{{{{{{{{{{{{{{{{~),,,",
",,,!''''''''''''''''''''''!,,,",
",,,]^////////////////////^],,,",
"(((]______________________](((",
"(((!::::::::::::::::::::::!(((",
"(((!::::::::::::::::::::::!(((",
"(((]______________________](((",
"(((]_______<[____[<_______](((",
"(((!:::::::[}[__[}[:::::::!(((",
"(((]________[}[[}[________](((",
"(((]_________[}}[_________](((",
"|||]__________[[__________]|||",
"|||]_______}}}}}}}}_______]|||",
"|||]_______}}}}}}}}_______]|||",
"|||]______________________]|||",
"|||]______________________]|||",
"|||]______________________]|||",
"111]//////////////////////]111",
"111]______________________]111",
"111]______________________]111",
"1112//////////////////////2111",
"11134////////////////////43111",
"111%3]]]]]]]]]]]]]]]]]]]]3$111",
"111156666666666666666666651111",
"111111111111111111111111111111",
"$$$$$$$$$$$$$$$$$$$$$$$$$$$$$$",
"$$$$$$$$$$$$$$$$$$$$$$$$$$$$$$",
"$$$$$$$$$$$$$$$$$$$$$$$$$$$$$$",
"++++++++++++++++++++++++++++++"};
