/* XPM */
static char * rolldownI_xpm[] = {
"30 68 26 1",
" 	c #555555",
".	c #474747",
"+	c #343434",
"@	c #313131",
"#	c #404040",
"$	c #444444",
"%	c #303030",
"&	c #484848",
"*	c #494949",
"=	c #4A4A4A",
"-	c #4B4B4B",
";	c #F3F3F3",
">	c #595959",
",	c #2F2F2F",
"'	c #353535",
")	c #434343",
"!	c #4E4E4E",
"~	c #4F4F4F",
"{	c #3A3A3A",
"]	c #545454",
"^	c #535353",
"/	c #525252",
"(	c #515151",
"_	c #505050",
":	c #5B5B5B",
"<	c #5D5D5D",
"                              ",
"                              ",
"                              ",
"                              ",
"   .+@@@@@@@@@@@@@@@@@@@@+.   ",
"   +#$$$$$$$$$$$$$$$$$$$$#+   ",
"   @......................@   ",
"   %&********************&%   ",
"   %======================%   ",
"   @----------------------@   ",
"   @----------------------@   ",
"   %=======;;;;;;;;=======%   ",
"   %=======;;;;;;;;=======%   ",
"   @------->>>>>>>>-------@   ",
"   %======================%   ",
"   %======================%   ",
"   %======================%   ",
"   %======================%   ",
"   %======================%   ",
"   %======================%   ",
"   %======================%   ",
"   %======================%   ",
"   %**********************%   ",
"   %======================%   ",
"   %======================%   ",
"   ,**********************,   ",
"   ')********************)'   ",
"   !'%%%%%%%%%%%%%%%%%%%%'~   ",
"                              ",
"                              ",
"                              ",
"                              ",
"                              ",
"{{{{{{{{{{{{{{{{{{{{{{{{{{{{{{",
"]]]]]]]]]]]]]]]]]]]]]]]]]]]]]]",
"^^^^^^^^^^^^^^^^^^^^^^^^^^^^^^",
"^^^^^^^^^^^^^^^^^^^^^^^^^^^^^^",
"^^^^^^^^^^^^^^^^^^^^^^^^^^^^^^",
"^^^.+@@@@@@@@@@@@@@@@@@@@+.^^^",
"^^^+#$$$$$$$$$$$$$$$$$$$$#+^^^",
"^^^@......................@^^^",
"^^^%&********************&%^^^",
"///%======================%///",
"///@----------------------@///",
"///@----------------------@///",
"///%=======;;;;;;;;=======%///",
"///%=======;;;;;;;;=======%///",
"///@------->>>>>>>>-------@///",
"///%======================%///",
"///%======================%///",
"(((%======================%(((",
"(((%======================%(((",
"(((%======================%(((",
"(((%======================%(((",
"(((%======================%(((",
"(((%======================%(((",
"___%**********************%___",
"___%======================%___",
"___%======================%___",
"___,**********************,___",
"___')********************)'___",
"___!'%%%%%%%%%%%%%%%%%%%%'~___",
"____:<<<<<<<<<<<<<<<<<<<<:____",
"______________________________",
"~~~~~~~~~~~~~~~~~~~~~~~~~~~~~~",
"~~~~~~~~~~~~~~~~~~~~~~~~~~~~~~",
"~~~~~~~~~~~~~~~~~~~~~~~~~~~~~~",
"{{{{{{{{{{{{{{{{{{{{{{{{{{{{{{"};
