/* XPM */
static char * rolldownA_xpm[] = {
"30 68 25 1",
" 	c #525252",
".	c #515151",
"+	c #474747",
"@	c #343434",
"#	c #313131",
"$	c #404040",
"%	c #444444",
"&	c #505050",
"*	c #303030",
"=	c #484848",
"-	c #494949",
";	c #4A4A4A",
">	c #4B4B4B",
",	c #4F4F4F",
"'	c #F3F3F3",
")	c #595959",
"!	c #4E4E4E",
"~	c #4D4D4D",
"{	c #4C4C4C",
"]	c #2F2F2F",
"^	c #353535",
"/	c #434343",
"(	c #5B5B5B",
"_	c #5D5D5D",
":	c #2C2C2C",
"                              ",
"                              ",
"                              ",
"..............................",
"...+@####################@+...",
"...@$%%%%%%%%%%%%%%%%%%%%$@...",
"...#++++++++++++++++++++++#...",
"&&&*=--------------------=*&&&",
"&&&*;;;;;;;;;;;;;;;;;;;;;;*&&&",
"&&&#>>>>>>>>>>>>>>>>>>>>>>#&&&",
",,,#>>>>>>>>>>>>>>>>>>>>>>#,,,",
",,,*;;;;;;;'''''''';;;;;;;*,,,",
",,,*;;;;;;;'''''''';;;;;;;*,,,",
",,,#>>>>>>>))))))))>>>>>>>#,,,",
"!!!*;;;;;;;;;;;;;;;;;;;;;;*!!!",
"!!!*;;;;;;;;;;;;;;;;;;;;;;*!!!",
"!!!*;;;;;;;;;;;;;;;;;;;;;;*!!!",
"!!!*;;;;;;;;;;;;;;;;;;;;;;*!!!",
"~~~*;;;;;;;;;;;;;;;;;;;;;;*~~~",
"~~~*;;;;;;;;;;;;;;;;;;;;;;*~~~",
"~~~*;;;;;;;;;;;;;;;;;;;;;;*~~~",
"{{{*;;;;;;;;;;;;;;;;;;;;;;*{{{",
"{{{*----------------------*{{{",
"{{{*;;;;;;;;;;;;;;;;;;;;;;*{{{",
"{{{*;;;;;;;;;;;;;;;;;;;;;;*{{{",
">>>]----------------------]>>>",
">>>^/--------------------/^>>>",
">>>!^********************^,>>>",
">>>&(____________________(&>>>",
";;;;;;;;;;;;;;;;;;;;;;;;;;;;;;",
";;;;;;;;;;;;;;;;;;;;;;;;;;;;;;",
";;;;;;;;;;;;;;;;;;;;;;;;;;;;;;",
"------------------------------",
"::::::::::::::::::::::::::::::",
"                              ",
"                              ",
"                              ",
"..............................",
"...+@####################@+...",
"...@$%%%%%%%%%%%%%%%%%%%%$@...",
"...#++++++++++++++++++++++#...",
"&&&*=--------------------=*&&&",
"&&&*;;;;;;;;;;;;;;;;;;;;;;*&&&",
"&&&#>>>>>>>>>>>>>>>>>>>>>>#&&&",
",,,#>>>>>>>>>>>>>>>>>>>>>>#,,,",
",,,*;;;;;;;'''''''';;;;;;;*,,,",
",,,*;;;;;;;'''''''';;;;;;;*,,,",
",,,#>>>>>>>))))))))>>>>>>>#,,,",
"!!!*;;;;;;;;;;;;;;;;;;;;;;*!!!",
"!!!*;;;;;;;;;;;;;;;;;;;;;;*!!!",
"!!!*;;;;;;;;;;;;;;;;;;;;;;*!!!",
"!!!*;;;;;;;;;;;;;;;;;;;;;;*!!!",
"~~~*;;;;;;;;;;;;;;;;;;;;;;*~~~",
"~~~*;;;;;;;;;;;;;;;;;;;;;;*~~~",
"~~~*;;;;;;;;;;;;;;;;;;;;;;*~~~",
"{{{*;;;;;;;;;;;;;;;;;;;;;;*{{{",
"{{{*----------------------*{{{",
"{{{*;;;;;;;;;;;;;;;;;;;;;;*{{{",
"{{{*;;;;;;;;;;;;;;;;;;;;;;*{{{",
">>>]----------------------]>>>",
">>>^/--------------------/^>>>",
">>>!^********************^,>>>",
">>>&(____________________(&>>>",
";;;;;;;;;;;;;;;;;;;;;;;;;;;;;;",
";;;;;;;;;;;;;;;;;;;;;;;;;;;;;;",
";;;;;;;;;;;;;;;;;;;;;;;;;;;;;;",
"------------------------------",
"::::::::::::::::::::::::::::::"};
