/* XPM */
static char *image[] = {
"48 48 540 2",
"   c None",
"00 c #4a4a49",
"10 c #474746",
"20 c #494948",
"30 c #484847",
"40 c #454545",
"50 c #474747",
"60 c #4a4a48",
"70 c #3d4339",
"80 c #7f9072",
"90 c #e3eade",
":0 c #dae4d3",
";0 c #cbd8c1",
"A0 c #aabc9e",
"B0 c #7e9072",
"C0 c #3d4439",
"D0 c #464646",
"E0 c #494949",
"F0 c #40483c",
"G0 c #8da080",
"H0 c #40473b",
"I0 c #434343",
"J0 c #3c403a",
"K0 c #9bae8e",
"L0 c #edefeb",
"M0 c #9caf8f",
"N0 c #3b3f38",
"O0 c #4a4a4a",
"P0 c #d2e4c6",
"Q0 c #c2dcb0",
"R0 c #b4d69c",
"S0 c #a6d089",
"T0 c #b3d69b",
"U0 c #c0dcad",
"V0 c #d0e3c4",
"W0 c #879a7a",
"X0 c #3c3c3b",
"Y0 c #4b4b4a",
"Z0 c #bacbaf",
"a0 c #c3ddb1",
"b0 c #72b941",
"c0 c #71b840",
"d0 c #99ca77",
"e0 c #eff1ee",
"f0 c #bbcbaf",
"g0 c #3c3f3b",
"h0 c #4c4c4a",
"i0 c #454e40",
"j0 c #c4ddb2",
"k0 c #80b05f",
"l0 c #7cbd4f",
"m0 c #c4ddb3",
"n0 c #d3dfcb",
"o0 c #454c3e",
"p0 c #4e4e4d",
"q0 c #464e40",
"r0 c #86c25d",
"s0 c #dfe9d7",
"t0 c #e2eadd",
"u0 c #464e42",
"v0 c #434342",
"w0 c #40413e",
"x0 c #d2dec9",
"y0 c #68b135",
"z0 c #73b943",
"01 c #cde1be",
"11 c #d3dfca",
"21 c #3d403b",
"31 c #3e3e3d",
"41 c #b8c9ac",
"51 c #bedbaa",
"61 c #80af60",
"71 c #89be63",
"81 c #6cb638",
"91 c #bbd9a6",
":1 c #b9caad",
";1 c #889b7a",
"A1 c #cee2c1",
"B1 c #6cb639",
"C1 c #65ac34",
"D1 c #e4e9e0",
"E1 c #e7ece4",
"F1 c #6cb538",
"G1 c #cce0be",
"H1 c #889b7b",
"I1 c #41463e",
"J1 c #dfead8",
"K1 c #74b943",
"L1 c #65ad35",
"M1 c #dee6d9",
"N1 c #c7ddb9",
"O1 c #cadabe",
"P1 c #69b436",
"Q1 c #6ab436",
"R1 c #6ab536",
"S1 c #72b741",
"T1 c #dde8d6",
"U1 c #e7ece3",
"V1 c #41453d",
"W1 c #474745",
"X1 c #454544",
"Y1 c #9db190",
"Z1 c #85c05c",
"a1 c #63ab34",
"b1 c #d3decb",
"c1 c #8ec36a",
"d1 c #93ba78",
"e1 c #eceeea",
"f1 c #67b235",
"g1 c #68b235",
"h1 c #68b336",
"i1 c #69b336",
"j1 c #82bc5b",
"k1 c #f1f2f1",
"l1 c #9eb291",
"m1 c #424241",
"n1 c #495145",
"o1 c #c2dcb1",
"p1 c #5fa432",
"q1 c #cedbc6",
"r1 c #8bc06a",
"s1 c #91b878",
"t1 c #65ae35",
"u1 c #66b035",
"v1 c #66b135",
"w1 c #67b135",
"x1 c #c0d9af",
"y1 c #edf0eb",
"z1 c #495042",
"02 c #484848",
"12 c #92a686",
"22 c #78b84e",
"32 c #5da232",
"42 c #a2bf90",
"52 c #8abe6a",
"62 c #90b778",
"72 c #62ac34",
"82 c #63ad34",
"92 c #64ad34",
":2 c #64ae34",
";2 c #65af35",
"A2 c #73b14c",
"B2 c #94a787",
"C2 c #cddac4",
"D2 c #c0daaf",
"E2 c #87b36e",
"F2 c #89bc69",
"G2 c #8fb577",
"H2 c #62ab34",
"I2 c #63ac34",
"J2 c #bed6ad",
"K2 c #cedbc5",
"L2 c #464d42",
"M2 c #91c273",
"N2 c #5fa534",
"O2 c #b9cfac",
"P2 c #86b968",
"Q2 c #8db477",
"R2 c #5da633",
"S2 c #5fa833",
"T2 c #60a833",
"U2 c #60a933",
"V2 c #61aa34",
"W2 c #8ebc72",
"X2 c #f1f1f1",
"Y2 c #454d42",
"Z2 c #494947",
"a2 c #839577",
"b2 c #eef0ed",
"c2 c #66ab3d",
"d2 c #5aa232",
"e2 c #5b9839",
"f2 c #e5e9e2",
"g2 c #84b668",
"h2 c #8cb177",
"i2 c #ebeeea",
"j2 c #5da533",
"k2 c #5ea633",
"l2 c #5ea733",
"m2 c #5fa733",
"n2 c #64a53c",
"o2 c #eff0ed",
"p2 c #839578",
"q2 c #464645",
"r2 c #cbdec1",
"s2 c #579536",
"t2 c #c6d5be",
"u2 c #83b268",
"v2 c #8aae77",
"w2 c #ebeee9",
"x2 c #589e31",
"y2 c #599f31",
"z2 c #5ca332",
"03 c #5ca432",
"13 c #5da532",
"23 c #5ca433",
"33 c #cbdcc1",
"43 c #abbda0",
"53 c #3e3e3c",
"63 c #454543",
"73 c #b9d4aa",
"83 c #559235",
"93 c #80af67",
":3 c #89ac77",
";3 c #569a32",
"A3 c #59a132",
"B3 c #5aa132",
"C3 c #5ba232",
"D3 c #5ba332",
"E3 c #b8d0a9",
"F3 c #c7d5be",
"G3 c #444444",
"H3 c #d6e0cf",
"I3 c #a9cc97",
"J3 c #569d31",
"K3 c #77a85e",
"L3 c #7eab67",
"M3 c #87aa77",
"N3 c #529530",
"O3 c #589f31",
"P3 c #59a031",
"Q3 c #59a032",
"R3 c #a7c696",
"S3 c #d6e1d0",
"T3 c #414141",
"U3 c #99c283",
"V3 c #549930",
"W3 c #7fad69",
"X3 c #7ca866",
"Y3 c #86a775",
"Z3 c #ebede9",
"a3 c #50912f",
"b3 c #569c31",
"c3 c #579d31",
"d3 c #579e31",
"e3 c #96bb82",
"f3 c #dfe7db",
"g3 c #95bf80",
"h3 c #7da76a",
"i3 c #79a566",
"j3 c #84a576",
"k3 c #4e8e30",
"l3 c #51972f",
"m3 c #529830",
"n3 c #549a30",
"o3 c #559b30",
"p3 c #559c30",
"q3 c #91b87d",
"r3 c #dfe6db",
"s3 c #3f3f3f",
"t3 c #444443",
"u3 c #d5dfcf",
"v3 c #a0c48d",
"w3 c #49882d",
"x3 c #c5d1c0",
"y3 c #77a265",
"z3 c #82a275",
"04 c #4a8a2f",
"14 c #4e922f",
"24 c #529730",
"34 c #539830",
"44 c #539930",
"54 c #9bbd89",
"64 c #d6e0d0",
"74 c #3a3a38",
"84 c #40403f",
"94 c #424242",
":4 c #c5d3be",
";4 c #aecba0",
"A4 c #4f932f",
"B4 c #45812c",
"C4 c #ced7ca",
"D4 c #8ca981",
"E4 c #99b08f",
"F4 c #eaede9",
"G4 c #48862e",
"H4 c #4e922e",
"I4 c #50952f",
"J4 c #51962f",
"K4 c #529630",
"L4 c #a9c59b",
"M4 c #c6d4be",
"N4 c #404040",
"O4 c #a9baa1",
"P4 c #ceddc6",
"Q4 c #498d2d",
"R4 c #447e2c",
"S4 c #d9dfd7",
"T4 c #eaece9",
"U4 c #46822e",
"V4 c #4a8e2e",
"W4 c #4d922e",
"X4 c #4e932f",
"Y4 c #4f942f",
"Z4 c #4e902e",
"a4 c #c9d9c1",
"b4 c #aabba0",
"c4 c #40403e",
"d4 c #84967c",
"e4 c #ecefeb",
"f4 c #529533",
"g4 c #4c912e",
"h4 c #488c2d",
"i4 c #46872c",
"j4 c #3e7429",
"k4 c #ebedea",
"l4 c #437d2c",
"m4 c #4b8f2e",
"n4 c #4c902e",
"o4 c #4d912e",
"p4 c #4b892f",
"q4 c #e8ece6",
"r4 c #82947b",
"s4 c #353533",
"t4 c #4c5149",
"u4 c #7fae6a",
"v4 c #43822c",
"w4 c #4a7a3b",
"x4 c #b4c3af",
"y4 c #b5c5b0",
"z4 c #51853d",
"05 c #44842d",
"15 c #4a8d2d",
"25 c #4b8e2e",
"35 c #4c8f2e",
"45 c #75a261",
"55 c #494f45",
"65 c #414140",
"75 c #cad6c4",
"85 c #b7cfad",
"95 c #41802b",
":5 c #618854",
";5 c #e5e8e4",
"A5 c #699559",
"B5 c #43832d",
"C5 c #46892c",
"D5 c #488b2d",
"E5 c #498c2d",
"F5 c #488a2c",
"G5 c #b0c8a6",
"H5 c #cbd7c5",
"I5 c #91a389",
"J5 c #5d9845",
"K5 c #47892d",
"L5 c #46882c",
"M5 c #43842c",
"N5 c #41812c",
"O5 c #527f43",
"P5 c #e3e7e2",
"Q5 c #e5e9e4",
"R5 c #598c48",
"S5 c #42822b",
"T5 c #44872c",
"U5 c #46892d",
"V5 c #478a2d",
"W5 c #548a3e",
"X5 c #90a389",
"Y5 c #50564d",
"Z5 c #adc8a2",
"a5 c #45882c",
"b5 c #42842b",
"c5 c #3c762b",
"d5 c #d1d9ce",
"e5 c #d3dcd1",
"f5 c #41802e",
"g5 c #41822b",
"h5 c #45872c",
"i5 c #44852b",
"j5 c #a5c09b",
"k5 c #eceeeb",
"l5 c #4b5249",
"m5 c #393937",
"n5 c #3f3f3e",
"o5 c #9dad94",
"p5 c #f1f1f0",
"q5 c #6b9e58",
"r5 c #43852c",
"s5 c #42832b",
"t5 c #719466",
"u5 c #77a16b",
"v5 c #43842b",
"w5 c #44862c",
"x5 c #619050",
"y5 c #eff0ef",
"z5 c #9daf95",
"06 c #3a3a3a",
"16 c #333333",
"26 c #3b3b3a",
"36 c #484c46",
"46 c #d7e1d3",
"56 c #4a8834",
"66 c #40822b",
"76 c #3b7829",
"86 c #c5d1c2",
"96 c #c7d4c3",
":6 c #40812b",
";6 c #41832b",
"A6 c #447d30",
"B6 c #d2dece",
"C6 c #e4e9e2",
"D6 c #434841",
"E6 c #3d3d3c",
"F6 c #889a81",
"G6 c #bcd0b5",
"H6 c #40812d",
"I6 c #3d7d2a",
"J6 c #39742a",
"K6 c #eeefed",
"L6 c #eff0ee",
"M6 c #3e7e2c",
"N6 c #3e7f2a",
"O6 c #3f802b",
"P6 c #3d7a2a",
"Q6 c #b7cbb0",
"R6 c #8a9b82",
"S6 c #3e3e3e",
"T6 c #b4c4af",
"U6 c #acc5a3",
"V6 c #3e7f2c",
"W6 c #3c7c2a",
"X6 c #4f8041",
"Y6 c #548c45",
"Z6 c #3d7e2a",
"a6 c #3c782a",
"b6 c #a7c09f",
"c6 c #b6c5b0",
"d6 c #363636",
"e6 c #454844",
"f6 c #ced9cb",
"g6 c #b9cdb3",
"h6 c #428032",
"i6 c #5f8b52",
"j6 c #c6d4bf",
"k6 c #8eaf7f",
"l6 c #8dad7f",
"m6 c #c5d1bf",
"n6 c #639655",
"o6 c #3e772d",
"p6 c #b6caaf",
"q6 c #424542",
"r6 c #333331",
"s6 c #393938",
"t6 c #4f574d",
"u6 c #d7e1d4",
"v6 c #739a68",
"w6 c #a7c09c",
"x6 c #47802b",
"y6 c #4a832b",
"z6 c #49822b",
"07 c #477f2c",
"17 c #a3b999",
"27 c #739969",
"37 c #d6e0d3",
"47 c #f2f2f2",
"57 c #dfe5dd",
"67 c #4f554b",
"77 c #333332",
"87 c #51574f",
"97 c #cfd9cb",
":7 c #e9ece7",
";7 c #4b8332",
"A7 c #49832e",
"B7 c #4b852d",
"C7 c #4b842d",
"D7 c #48822d",
"E7 c #487e31",
"F7 c #e8ebe7",
"G7 c #f2f2f1",
"H7 c #d0dbcd",
"I7 c #51574d",
"J7 c #323230",
"K7 c #383837",
"L7 c #b7c5b3",
"M7 c #cad7c5",
"N7 c #46812e",
"O7 c #49822e",
"P7 c #4a832d",
"Q7 c #49832d",
"R7 c #48832e",
"S7 c #447c2d",
"T7 c #c8d3c4",
"U7 c #b8c7b3",
"V7 c #444743",
"W7 c #363635",
"X7 c #8c9e87",
"Y7 c #e5eae4",
"Z7 c #e8ece7",
"a7 c #b0c4a6",
"b7 c #90af83",
"c7 c #90ae83",
"d7 c #9fb994",
"e7 c #afc4a7",
"f7 c #e7ebe6",
"g7 c #f3f3f3",
"h7 c #e6eae5",
"i7 c #8d9f88",
"j7 c #323232",
"k7 c #474b46",
"l7 c #9eb098",
"m7 c #edefec",
"n7 c #9fb099",
"o7 c #494d48",
"p7 c #3a3a39",
"q7 c #30302f",
"r7 c #2f2f2d",
"s7 c #323231",
"t7 c #383838",
"u7 c #4d534b",
"v7 c #93a58e",
"w7 c #f5f5f5",
"x7 c #f4f4f4",
"y7 c #f3f3f2",
"z7 c #cad7c7",
"08 c #94a58e",
"18 c #4e564d",
"28 c #313131",
"38 c #313130",
"48 c #343434",
"58 c #4f534d",
"68 c #859781",
"78 c #e2e7e0",
"88 c #d8e0d5",
"98 c #c7d3c4",
":8 c #acbca7",
";8 c #869580",
"A8 c #50554e",
"B8 c #2f2f2e",
"C8 c #353535",
"D8 c #393939",
"E8 c #3d3d3d",
"F8 c #3c3c3c",
"G8 c #3b3b3b",
"H8 c #373737",
"I8 c #303030",
"J8 c #2d2d2b",
"K8 c #292929",
"L8 c #2d2d2d",
"M8 c #2b2b2b",
"N8 c #2a2a2a",
"O8 c #282828",
"                                                                                                ",
"                                      O8O8N8M8L8M8N8N8K8M8                                      ",
"                                N8J8I8H8G8F8E8E8E8F8G8D8C8B8M8J8                                ",
"                            N8I8D8E8A8;8:8988878788898:86858G84838J8                            ",
"                        N828G81808z7y7x7x7x7w7w7w7x7x7x7x7y7z7v7u7t7s7r7                        ",
"                      q7p7o7n7m7x7x7x7x7x7x7w7w7w7w7x7x7x7x7x7x7m7l7k7t728I8                    ",
"                  K8j7E8i7h7g7g7x7x7x7x7f7e7d7c7b7d7a7Z7x7x7x7x7g7g7Y7X7F8W728                  ",
"                M8C8V7U7g7g7g7g7x7x7x7x7T7S7R7Q7P7O7N7M7x7x7x7x7g7g7g7g7L7V7K7J7                ",
"              L8H8I7H7g7g7g7G7g7x7x7x7x7F7E7D7C7B7A7;7:7x7x7x7x7g7G7g7g7g79787p777              ",
"            L8C8675747g7g73727g7x7x7x7x7x71707z6y6x6w6x7x7x7x7x7g7v6u6g7g74757t6s6r6            ",
"            j7q6974747g7p6o6n6g7g7x7x7x7x7x7m6l6k6j6x7x7x7x7x7g7g7i6h6g6g74747f6e6t7d6          ",
"          77G8c6474747b6a6Z6Y6g7g7x7x7x7x7x7x7x7x7x7x7x7x7x7x7g7g7X6W6V6U6474747T6S6K7          ",
"        I8H8R6474747Q6P6O6N6M6L6g7g7x7x7x7x7x7x7x7x7x7x7x7x7g7g7K6J6I6N6H6G6474747F6E6d6        ",
"        48D6C64747B6A6;6:6O6N696g7g7g7x7x7x7x7x7x7x7x7x7x7g7g7g78676N6O66656464747C63626        ",
"      1606z54747y5x5w5v5;666O6u5g7g7g7g7g7x7x7x7x7x7x7g7g7g7g7g7t5N6O666s5r5q5p54747o5n5m5      ",
"      W7l5k54747j5i5h5w5r5s5g5f5e5g7g7g7g7g7g7g7g7g7g7g7g7g7g7d5c5:6g5b5r5w5a5Z54747k5Y526      ",
"    77t7X54747m7W5V5U5a5T5r5v5S5R5Q5g7g7g7g7g7g7g7g7g7g7g7g7P5O5N5s5M5w5h5L5K5J5L64747I5S6E8    ",
"    C8E8H54747G5F5E5D5V5C5a5T5w5B5A5;5g7g7g7g7g7g7g7g7g7g7P5:595r5w5T5a5C5V5D5E5854747756506    ",
"    s655p5474745352515E5D5V5C5L5h505z4y4g7g7g7g7g7g7g7g7x4w4v4T5h5L5U5V5D5E51525u44747p5t4F8    ",
"  s406r44747q4p4o4n4m42515E5D5D5V5U5L5l4k4g7g7g7g7g7g7;5j4i4C5K5V5D5h4E5152535g4f4e44747d4n5c4  ",
"  H8F8b44747a4Z4Y4X4W4g4n4m4V415E5E5D5U4T4474747474747S4R4D5D5E5Q415V4m4n4o4W4X4Y4P44747O4N465  ",
"  m5E8M44747L4K4J4I4Y4X4H4o4g4n4m4m425G4F4E4D447474747C4B4V425m4m4n4g4o4H4A4Y4I4J4;44747:49484  ",
"  74S664474754443424J4I4I4Y4A414H4o4o404F4z3y347474747x3w3g4o4o4H4X4A4Y4I4J4J42434v34747u3t3s3  ",
"  p7S6r34747q3p3o3n344m324l3J4I4I4Y4Y4k3F4j3i347474747K6h3A4Y4Y4I4I4J4l3243444n3o3g34747r3t384  ",
"  p7S6f34747e3d3c3b3o3o3n34444m32424l3a3Z3Y3X34747474747K6W3l324243444V3n3o3o3b3c3U34747f3T365  ",
"  p7N4S34747R3Q3P3O3d3c3b3b3o3o3n3n3V3N3Z3M3L3474747474747K6K3n3n3o3o3b3J3c3d3O3P3I34747H3G3T3  ",
"  F8s3F34747E3D3C3B3A3P3O3O3d3c3c3J3b3;3k4:393474747474747M483J3c3d3d3O3O3P3B3B3C3734747F3G363  ",
"  53s343474733231303z2C3C3B3B3Q3P3y2O3x2w2v2u24747474747t2s2O3P3P3Q3B3B3C3D3z20313r2474743t3q2  ",
"  c4n5p24747o2n2m2l2k2j2130303D3D3C3C3B3i2h2g247474747f2e2d2C3C3D3z2030313j2k2l2c2b24747a265Z2  ",
"    S6Y2X24747W2V2U2T2S2m2m2k2k2R2j21313i2Q2P24747474747O2N2j2j2R2k2k2m2m2S2U2U2M24747X2L265    ",
"    E8N4K24747J2I2I2H2H2V2V2U2U2T2S2S2m2i2G2F2474747474747E2S2T2T2U2U2V2V2H2H2I2D24747C2G3G3    ",
"    E865B24747b2A2;2:29282I2I272H2H2H2V2i2625247474747474232H2H2H272I2I28292:222L6474712G302    ",
"      n5z1y14747x1w1v1u1u1;2;2t1:2:29292i2s1r147474747q1p19292:2:2t1;2;2u1u1w1o14747e4n1m1      ",
"      E6m1l14747k1j1i1h1g1g1f1w1w1v1u1u1e1d1c147474747b1a1u1u1v1w1w1f1g1g1h1Z1k14747Y1X1W1      ",
"        84V1U14747T1S1R1R1R1Q1P1P1i1i1h1e1O1N147474747M1L1h1i1i1P1P1Q1R1R1K1J14747U1I1m1        ",
"        N4t3H1474747G1F1R1R1R1R1R1R1R1R1E1474747474747D1C1R1R1R1R1R1R1R1B1A1474747;1X102        ",
"          n526:14747479181R1R1R1R1R1R1R171i247474747i261g1R1R1R1R1R1R1B1514747474131X1          ",
"            m1211147474701z0R1R1R1R1R1R1R171i24747i261y0R1R1R1R1R1R1z0A1474747x0w0t3            ",
"            q2v0u0t0474747s0r0R1R1R1R1R1R1R171i2i261y0R1R1R1R1R1R1r0s0474747t0q0t3p0            ",
"              t3t3o0n0474747k1m0l0R1R1R1R1R1R171k0y0R1R1R1R1R1l0j0k1474747n0i0X1h0              ",
"                v0t3g0f047474747e0j0d0c0R1R1R1R1R1R1R1R1b0d0a0e047474747Z021X1Y0                ",
"                  q2v0X0W0E14747474747e0V0U0T0S0S0R0Q0P0e04747474747E1W0E6q2O0                  ",
"                      65X1N0M0L047474747474747474747474747474747L0K0J0X1q2                      ",
"                        I065v0H0G0K2k147474747474747474747k1K2G0F0v0X1E0                        ",
"                            t3m1D006C0B0A0;0:09090:0;0A0807026q2q260                            ",
"                                5040v0X14026W7j7j7d6F8X1q2q202O0                                ",
"                                      Z2302050101050006000                                      ",
"                                                                                                "};
