/* XPM */
static char *image[] = {
"64 64 101 2",
"   c None",
"00 c #7aa3f5",
"10 c #729df4",
"20 c #467ff1",
"30 c #e3ecfd",
"40 c #acc5f9",
"50 c #5186f2",
"60 c #3572f0",
"70 c #83a9f5",
"80 c #96b6f7",
"90 c #84a9f5",
":0 c #3977f1",
";0 c #3976f1",
"A0 c #3c78f0",
"B0 c #83a9f6",
"C0 c #4880f1",
"D0 c #d7e4fc",
"E0 c #306fef",
"F0 c #467ef1",
"G0 c #2c6cef",
"H0 c #3b77f1",
"I0 c #6292f3",
"J0 c #92b3f7",
"K0 c #3271ef",
"L0 c #9bb9f8",
"M0 c #cbdbfb",
"N0 c #6796f4",
"O0 c #427cf0",
"P0 c #3c77f0",
"Q0 c #3e79f0",
"R0 c #2e6def",
"S0 c #477ff1",
"T0 c #adc6f9",
"U0 c #7ba3f5",
"V0 c #5b8df3",
"W0 c #3f79f0",
"X0 c #5c8ef2",
"Y0 c #7da5f5",
"Z0 c #feffff",
"a0 c #e9f0fd",
"b0 c #f9fbff",
"c0 c #85abf6",
"d0 c #fefeff",
"e0 c #fdfeff",
"f0 c #3d78f0",
"g0 c #3371f0",
"h0 c #90b2f7",
"i0 c #407af0",
"j0 c #f4f8fe",
"k0 c #3170ef",
"l0 c #a2bef8",
"m0 c #3775f0",
"n0 c #3472f0",
"o0 c #457ef1",
"p0 c #edf3fe",
"q0 c #e2eafd",
"r0 c #739ef4",
"s0 c #d5e1fc",
"t0 c #4e84f2",
"u0 c #c1d4fa",
"v0 c #316fef",
"w0 c #6393f3",
"x0 c #f2f6fe",
"y0 c #79a2f5",
"z0 c #6091f3",
"01 c #3874f0",
"11 c #e8effd",
"21 c #81a7f6",
"31 c #2f6eef",
"41 c #3875f0",
"51 c #3070ef",
"61 c #4f84f2",
"71 c #fafcff",
"81 c #3774f0",
"91 c #81a8f5",
":1 c #3674f0",
";1 c #6594f3",
"A1 c #2f6fef",
"B1 c #749ef4",
"C1 c #dae5fc",
"D1 c #f3f7fe",
"E1 c #dde7fc",
"F1 c #88acf6",
"G1 c #2d6def",
"H1 c #78a1f5",
"I1 c #eef4fe",
"J1 c #2e6eef",
"K1 c #ecf1fe",
"L1 c #9fbcf8",
"M1 c #d8e3fc",
"N1 c #f1f5fe",
"O1 c #ecf2fe",
"P1 c #ffffff",
"Q1 c #3673f0",
"R1 c #3573f0",
"S1 c #3371ef",
"T1 c #3975f0",
"U1 c #3a76ef",
"V1 c #3977ef",
"W1 c #3a76f0",
"X1 c #3976f0",
"                                                            X1W1W1V1U1                                                          ",
"                                                W1W1W1W1W1W1W1W1W1W1W1W1W1W1W1W1T1                                              ",
"                                          W1W1W1W1W1W1W1W1W1W1W1W1W1W1W1W1W1W1W1W1W1W1W1                                        ",
"                                      W1W1W1W1W1W1W1W1W1W1W1W1W1W1W1W1W1W1W1W1W1W1W1W1W1W1W1                                    ",
"                                  W1W1W1W1W1W1W1W1W1W1W1W1S1W1W1W1W1W1R1W1W1W1W1W1W1W1W1W1W1W1W1                                ",
"                              W1W1W1W1W1W1W1W1W1Q1P1P1P1P1P1W1W1W1W1W1P1P1P1P1O1T1W1W1W1W1W1W1W1W1W1                            ",
"                            W1W1W1W1W1W1W1W1P1P1P1P1P1P1P1P1W1W1W1W1W1P1P1P1P1P1P1P1N1W1W1W1W1W1W1W1W1                          ",
"                        W1W1W1W1W1W1W1W1W1P1P1P1P1P1P1P1P1P1W1W1W1W1W1P1P1P1P1P1P1P1P1P1W1W1W1W1W1W1W1W1                        ",
"                      W1W1W1W1W1W1W1W1W1W1M1P1P1P1L1W1W1W1W1W1W1W1W1W1W1W1W1T1K1P1P1P1J1W1W1W1W1W1W1W1W1W1W1                    ",
"                    W1W1W1W1W1W1W1W1W1W1W1W1I1W1W1W1W1W1W1W1W1W1W1W1W1W1W1W1W1W1W1W1P1W1W1W1W1W1H1W1W1W1W1W1W1                  ",
"                  W1W1W1W1W1W1P1P1W1W1W1W1W1W1W1W1W1W1W1W1G1F1E1D1C1B1A1W1W1W1W1W1W1W1W1W1W1W1W1P1P1W1W1W1W1W1W1                ",
"                W1W1W1W1W1W1P1P1P1P1W1W1W1W1W1W1W1;1P1P1P1P1P1P1P1P1P1P1P1P1P1:1W1W1W1W1W1W1W1P1P1P1P1W1W1W1W1W1W1              ",
"              W1W1W1W1W1W1P1P1P1P191W1W1W1W1W1P1P1P1P1P1P1P1P1P1P1P1P1P1P1P1P1P1P1P1W1W1W1W1W1P1P1P1P1P1W1W1W1W1W1              ",
"              W1W1W1W1W1P1P1P1P181W1W1W1W1P1P1P1P1P1P1P1P1P1P1P1P1P1P1P1P1P1P1P1P1P1P171W1W1W1W161P1P1P1P1W1W1W1W1W1            ",
"            W1W1W1W1W1P1P1P1P1W1W1W1W151P1P1P1P1P1P1P1P1P1P1P1P1P1P1P1P1P1P1P1P1P1P1P1P1P141W1W1W131P1P1P1P1W1W1W1W1W1          ",
"          W1W1W1W1W1P1P1P1P1W1W1W1W1P1P1P1P1P1P1P1P1P1P1P1P1P1P1P1P1P1P1P1P1P1P1P1P1P1P1P1P121W1W1W131P1P1P1P1W1W1W1W1W1        ",
"          W1W1W1W111P1P1P101W1W1W1P1P1P1P1P1P1P1P1P1P1P1P1P1P1P1P1P1P1P1P1P1P1P1P1P1P1P1P1P1P171W1W1W1z0P1P1P1W1W1W1W1W1        ",
"        W1W1W1W1W1W1W1P1y0W1W1W1P1P1P1P1P1P1P1P1P1P1P1P1P1P1P1P1P1P1P1P1P1P1P1P1P1P1P1P1P1P1P1P1x0W1W1W1P1P1W1W1W1W1W1W1W1      ",
"        W1W1W1W1W1W1W1W1W1W1W1P1P1P1P1P1P1P1P1P1P1P1P1P1P1P1P1P1P1P1P1P1P1P1P1P1P1P1P1P1P1P1P1P1P1w0W1W1W1W1W1W1W1W1W1W1W1      ",
"      W1W1W1W1W1W1W1W1W1W1W1v0P1P1P1P1P1P1P1P1P1P1P1P1P1P1P1P1P1P1P1P1P1P1P1P1P1P1P1P1P1P1P1P1P1P1P1W1W1W1W1W1W1W1W1W1W1W1W1    ",
"      W1W1W1W1W1W1W1W1W1W1W1P1P1P1P1P1P1P1P1P1P1P1P1P1P1P1P1P1P1P1P1P1P1P1P1P1P1P1P1P1P1P1P1P1P1P1P1P1W1W1W1W1W1W1W1W1W1W1W1    ",
"    W1W1W1W1W1P1P1W1W1W1W1P1P1P1P1P1P1P1P1P1P1P1P1P1P1P1P1P1P1P1P1P1P1P1P1P1P1P1P1P1P1P1P1P1P1P1P1P1P1u0W1W1W1W1P1P1W1W1W1W1    ",
"    W1W1W1W1P1P1P1t0W1W1W1P1P1P1P1P1P1P1P1P1P1P1P1P1P1P1P1P1P1P1P1P1P1P1P1P1P1P1P1P1P1P1P1P1P1P1P1P1P1P1W1W1W1P1P1P1P1W1W1W1W1  ",
"    W1W1W1W1P1P1P1W1W1W1P1P1P1P1P1P1P1P1P1P1P1P1P1P1P1P1P1P1P1P1P1P1P1P1P1P1P1P1P1P1P1P1P1P1P1P1P1P1P1P1s0W1W1W1P1P1P1W1W1W1W1  ",
"  W1W1W1W1S1P1P1P1W1W1W1P1P1P1P1P1P1P1P1P1P1P1P1P1P1P1P1P1P1P1P1P1P1P1P1P1P1P1P1P1P1P1P1P1P1P1P1P1P1P1P1P1W1W1W1P1P1P1T1W1W1W1  ",
"  W1W1W1W1P1P1P1G1W1W1r0P1P1P1P1P1P1P1P1P1P1P1P1P1P1P1P1P1P1P1P1P1P1P1P1P1P1P1P1P1P1P1P1P1P1P1P1P1P1P1P1P1Q1W1W1q0P1P1p0W1W1W1W1",
"  W1W1W1W1P1P1P1W1W1W1P1P1P1P1P1P1P1P1P1P1P1P1P1P1P1P1P1P1P1P1P1P1P1P1P1P1P1P1P1P1P1P1P1P1P1P1P1P1P1P1P1P1P1W1W1T1P1P1P1W1W1W1W1",
"  W1W1W1W1P1P1P1W1W1W1P1P1P1P1P1P1P1P1P1P1P1P1P1P1P1P1P1P1P1P1P1P1P1P1P1P1P1P1P1P1P1P1P1P1P1P1P1P1P1P1P1P1P1W1W1W1P1P1P1W1W1W1W1",
"  W1W1W141P1P1P1W1W1W1P1P1P1P1P1P1P1P1P1P1P1P1P1P1P1P1P1P1P1P1P1P1P1P1P1P1P1P1P1P1P1P1P1P1P1P1P1P1P1P1P1P1P1W1W1W1P1P1P1W1W1W1W1",
"  W1W1W1o0P1P1x0W1W1n0P1P1P1P1P1P1P1P1P1P1P1P1P1P1P1P1P1P1P1P1P1P1P1P1P1P1P1P1P1P1P1P1P1P1P1P1P1P1P1P1P1P1P1W1W1W1P1P1P1m0W1W1W1",
"W1W1W1W1W1W1W1W1W1W1l0P1P1P1P1P1P1P1P1P1P1P1P1P1P1P1P1P1P1P1P1P1P1P1P1P1P1P1P1P1P1P1P1P1P1P1P1P1P1P1P1P1P1P1k0W1W1W1W1W1W1W1W1W1",
"W1W1W1W1W1W1W1W1W1W1j0P1P1P1P1P1P1P1P1P1P1P1P1P1P1P1P1P1P1P1P1P1P1P1P1P1P1P1P1P1P1P1P1P1P1P1P1P1P1P1P1P1P1P1T1W1W1W1W1W1W1W1W1W1",
"W1W1W1W1W1W1W1W1W1W1P1P1P1P1P1P1P1P1P1P1P1P1P1P1P1P1P1P1P1P1P1P1P1P1P1P1P1P1P1P1P1P1P1P1P1P1P1P1P1P1P1P1P1P1i0W1W1W1W1W1W1W1W1W1",
"W1W1W1W1W1W1W1W1W1W1j0P1P1P1P1P1P1P1P1P1P1P1P1P1P1P1P1P1P1P1P1P1P1P1P1P1P1P1P1P1P1P1P1P1P1P1P1P1P1P1P1P1P1P1T1W1W1W1W1W1W1W1W1W1",
"W1W1W1W1W1W1W1W1W1W1h0P1P1P1P1P1P1P1P1P1P1P1P1P1P1P1P1P1P1P1P1P1P1P1P1P1P1P1P1P1P1P1P1P1P1P1P1P1P1P1P1P1P1P1g0W1W1W1W1W1W1W1W1W1",
"  W1W1W1f0P1P1P1W1W1G1P1P1P1P1P1P1P1P1P1P1P1P1P1P1P1P1P1P1P1P1P1P1P1P1P1P1P1P1P1P1P1P1P1P1P1P1P1P1P1P1P1P1P1W1W1W1P1P1P181W1W1W1",
"  W1W1W1m0P1P1P1W1W1W1P1P1P1P1P1P1P1P1P1P1P1P1P1P1P1P1P1P1P1P1P1P1P1P1P1P1P1P1P1P1P1P1P1P1P1P1P1P1P1P1P1P1P1W1W1W1P1P1P1W1W1W1W1",
"  W1W1W1W1P1P1P1W1W1W1P1P1P1P1P1P1P1P1P1P1P1P1P1P1P1P1P1P1P1P1P1P1P1P1P1P1P1P1P1P1P1P1P1P1P1P1P1P1P1P1P1P1P1W1W1W1P1P1P1W1W1W1W1",
"  W1W1W1W1P1P1P1W1W1W1P1P1P1P1P1P1P1P1P1P1P1P1P1P1P1P1P1P1P1P1P1P1P1P1P1P1P1P1P1P1P1P1P1P1P1P1P1P1P1P1P1P1e0W1W1:1P1P1P1W1W1W1W1",
"  W1W1W1W1P1P1P1l0W1W101P1P1P1P1P1P1P1P1P1P1P1P1P1P1P1P1P1P1P1P1P1P1P1P1P1P1P1P1P1P1P1P1P1P1P1P1P1P1P1P1P1X1W1W171P1P1d0W1W1W1W1",
"  W1W1W1W1o0P1P1P1W1W1W1P1P1P1P1P1P1P1P1P1P1P1P1P1P1P1P1P1P1P1P1P1P1P1P1P1P1P1P1P1P1P1P1P1P1P1P1P1P1P1P1P1W1W1W1P1P1P1:1W1W1W1  ",
"    W1W1W1W1P1P1P1W1W1W1P1P1P1P1P1P1P1P1P1P1P1P1P1P1P1P1P1P1P1P1P1P1P1P1P1P1P1P1P1P1P1P1P1P1P1P1P1P1P1P1c0W1W1W1P1P1P1W1W1W1W1  ",
"    W1W1W1W1P1P1P1b0W1W1Q1P1P1P1P1P1P1P1P1P1P1P1P1P1P1P1P1P1P1P1P1P1P1P1P1P1P1P1P1P1P1P1P1P1P1P1P1P1P1P1W1W1W1P1P1P1P1W1W1W1W1  ",
"    W1W1W1W1a0P1P1Z0W1W1Y0P1P1P1P1P1P1P1P1P1P1P1P1P1P1P1P1P1P1P1P1P1P1P1P1P1P1P1P1P1P1P1P1P1P1P1P1P1P1X0W1W1W1W1P1P1W1W1W1W1    ",
"      W1W1W1P1P1P1W0W1W1P1P1P1P1P1P1P1P1P1P1P1P1P1P1P1P1P1P1P1P1P1P1P1P1P1P1P1P1P1P1P1P1P1P1P1P1P1P1P1W1W1W1W1W1W1W1W1W1W1W1    ",
"    W1W1W1W1V0P1P1W1W1W1P1P1P1P1P1P1P1P1P1P1P1P1P1P1P1P1P1P1P1P1P1P1P1P1P1P1P1P1P1P1P1P1P1P1P1P1P1P1W1W1W1W1W1W1W1W1W1W1W1W1    ",
"    W1W1W1W1W1W1W1W1W1W1P1P1P1P1P1P1P1P1P1P1P1P1P1P1P1P1P1P1P1P1P1P1P1P1P1P1P1P1P1P1P1P1P1P1P1P1P131W1W1W1W1W1W1W1W1W1W1W1      ",
"    W1W1W1W1W1W1W1W1W1W1P1P1P1P1P1P1P1P1P1P1P1P1P1P1P1P1P1P1P1P1P1P1P1P1P1P1P1P1P1P1P1P1P1P1P1P1y0W1W1W1P1P181W1W1W1W1W1W1      ",
"    W1W1W1W1W1W1W1W1W1T1P1P1P1P1P1P1P1P1P1P1P1P1P1P1P1P1P1P1P1P1P1P1P1P1P1P1P1P1P1P1P1P1P1P1P1U0W1W1W1T0P1P1P101W1W1W1W1        ",
"    W1W1W1W1W1W1W1W1W1S0P1P1P1P1P1P1P1P1P1P1P1P1P1P1P1P1P1P1P1P1P1P1P1P1P1P1P1P1P1P1P1P1P1P1R0W1W1W1Q0P1P1P1P1W1W1W1W1          ",
"    W1W1W1P1P1P1P0W1W1P1P1P1P1P1P1P1P1P1P1P1P1P1P1P1P1P1P1P1P1P1P1P1P1P1P1P1P1P1P1P1P1P1P1W1W1W1W1O0P1P1P1P1W1W1W1W1W1          ",
"  V1W1W1W1P1P1P181W1W1P1P1P1P1P1P1P1P1P1P1P1P1P1P1P1P1P1P1P1P1P1P1P1P1P1P1P1P1P1P1P1P1N0W1W1W1W1M0P1P1P1P1W1W1W1W1W1            ",
"  W1W1W1W1P1P1P1W1W1W1P1P1P1P1P1P1P1P1P1P1L0K0P1P1P1P1P1P1P1P1P1P1P1P1P1P1P1P1P1P1J0W1W1W1W1W1P1P1P1P1P1W1W1W1W1W1              ",
"  W1W1W1W1P1P1P1W1W1W1P1P1P1P1I081W1W1W1W1W1W1W1W1R0P1P1P1P1P1P1P1P1P1P1P1P1P141W1W1W1W1W1W1W1b0P1P1P1W1W1W1W1W1H0              ",
"  W1W1W141P1P1P1W1W1W1W1W1W1W1W1W1W1W1W1W1W1W1W1W1W1W1W1W1T1G0F0V0i0E0W1W1W1W1W1W1W1W1W1W1W1W1W1P1D0W1W1W1W1W1W1                ",
"  W1W1W1C0P1P1P1W1W1W1W1W1W1W1W1W1W1W1Q0d0P1P1W1W1W1W1W1W1W1W1W1W1W1W1W1W1W1W1W1W1v0P1W1W1W1W1W1W1W1W1W1W1W1W1                  ",
"  W1W1W1P1P1P1B0W1W1W1W181B1Q1W1W1W1W1P1P1P1P1P1P1j081W1W1W1W1W1W1W1W1W1W1W181P1P1P1P1A0W1W1W1W1W1W1W1W1W1;0                    ",
":0W1W1W1e0P1P190P1P1P1P1P1P180W1W1W1W1P1P1P1P1P1P1P1P1P1P1P1W1W1W1W1W1P1P1P1P1P1P1P1P1P1W1W1W1W1W1W1W1W1                        ",
"W1W1W1W1X1P1P1P1P1P1P1P1P1P1P1W1W1W1W1P17060P1P1P1P1P1P1P1P1W1W1W1W1W1P1P1P1P1P1P1P150W1W1W1W1W1W1W1W1                          ",
"V1W1W1W1W1M0P1P1P1P1P1P1P1P140W1W1W1W1W1W1W1W1W1T130P1P1P1P1W1W1W1W1W1P1P1P1P120W1W1W1W1W1W1W1W1W1                              ",
"  W1W1W1W1W1W11000Q1W1W1W1W1W1W1W1W1W1W1W1W1W1W1W1W1W1W1W1T1W1W1W1W1W1W1W1W1W1W1W1W1W1W1W1W1W1W1                                ",
"  W1W1W1W1W1W1W1W1W1W1W1W1W1W1W1W1W1W1W1W1W1W1W1W1W1W1W1W1W1W1W1W1W1W1W1W1W1W1W1W1W1W1W1W1W1                                    ",
"    W1W1W1W1W1W1W1W1W1W1W1W1W1W1W1W1W1      W1W1W1W1W1W1W1W1W1W1W1W1W1W1W1W1W1W1W1W1W1                                          ",
"      W1W1W1W1W1W1W1W1W1W1                        W1W1W1W1W1W1W1W1W1W1W1W1W1W1W1                                                "};
